<?xml version="1.0" encoding="utf-8"?>
<!DOCTYPE svg PUBLIC "-//W3C//DTD SVG 1.0//EN" "http://www.w3.org/TR/2001/REC-SVG-20010904/DTD/svg10.dtd">
<svg version="1.0" xmlns="http://www.w3.org/2000/svg" width="500px" height="500px" viewBox="0 0 500 500" preserveAspectRatio="xMidYMid meet">
 <g fill="black">
  <path d="M 61.8 364.3 c 5 -0.5 5.2 -1.2 1.2 -3.5 -5.4 -3.1 -6.6 -10.3 -2.4 -14.5 2.3 -2.3 3 -2.5 8.2 -1.9 9.9 1 23 0.6 28.4 -1.1 7.3 -2.1 13.4 -5.4 26.8 -14.1 12.4 -8.2 16.9 -12.5 20 -18.7 2.8 -5.9 5.4 -19.8 5.5 -29.3 0 -8.1 -0.1 -8.4 -3.1 -11.2 -1.9 -1.6 -5 -3.1 -7.4 -3.5 -3.6 -0.6 -5.3 -0.1 -13.9 4 -10.7 5.1 -12 5.2 -17.8 0.9 -1.7 -1.3 -3.8 -2.4 -4.5 -2.4 -2.5 0 -8.3 -5.7 -8.6 -8.3 -0.1 -1.4 0.9 -4.5 2.3 -6.9 3 -5.3 3.1 -8.6 0.4 -13.9 -2.4 -4.9 -1.9 -8.8 2 -13.9 1.4 -1.9 3.8 -5.3 5.3 -7.4 l 2.6 -4 -2.3 -4.5 c -1.2 -2.6 -3.9 -7 -5.8 -9.9 -2 -2.8 -3.9 -6.1 -4.2 -7.3 -0.8 -2.6 -0.1 -2.4 13.4 3.2 10.7 4.4 11.1 4.5 11.1 2.3 0 -1.3 0.6 -1.5 3.3 -1 1.7 0.4 7.5 1.3 12.7 2 11 1.6 14.1 2.7 22.9 8.4 9.7 6.3 13.9 6.8 31.4 3.3 15.6 -3.1 19.3 -2.4 31.3 5.9 8.5 5.8 8.9 6 15.3 6 3.6 0 12.7 -0.9 20.1 -1.9 7.4 -1.1 19.3 -2.7 26.3 -3.6 7.1 -0.8 19 -2.9 26.4 -4.5 27.2 -6 41.3 -6.3 61.7 -1.6 13.6 3.2 21.1 7 30.1 15.4 8.1 7.6 13.6 10.3 20.6 10.4 4.2 0 5.6 -0.5 9.3 -3.6 6.3 -5.1 8.1 -10.4 8.1 -23.6 -0.1 -16.5 -0.7 -19.1 -7 -25.8 -4.1 -4.4 -7.4 -6.8 -13.7 -9.8 l -8.3 -3.9 -15.1 0 c -16.2 -0.1 -18.4 -0.7 -18.4 -5 0 -9.1 21.9 -13.8 42.3 -9.1 14.1 3.3 25.4 14 34.7 33 7.5 15.3 6.5 38.1 -2.2 47.3 -1.1 1.2 -1.7 2.6 -1.4 3.1 0.9 1.5 -7.1 8.8 -13 11.9 -2.9 1.5 -5 3.1 -4.8 3.5 0.3 0.4 -1.3 0.8 -3.5 0.8 -2.3 0 -4.1 0.5 -4.1 1 0 1.8 -6.3 1 -12.4 -1.5 -3.3 -1.3 -6.1 -2.3 -6.3 -2.1 -0.2 0.2 0.1 1.5 0.6 3 0.6 1.4 0.8 3.3 0.4 4.1 -0.3 0.9 0.2 2.1 1.2 2.9 1.6 1.2 1.6 1.3 0.2 1.9 -1.3 0.5 -1.5 1.1 -0.7 3.2 0.7 1.8 0.6 3.2 -0.3 4.6 -1 1.7 -0.9 2.2 0.5 3.3 1 0.7 1.5 2 1.2 3.2 -0.3 1.3 0.4 2.8 2 4.3 1.5 1.4 2.6 3.6 2.6 5 0 3.5 2.5 7 8.7 12.2 3.5 2.9 6 6.1 7.4 9.4 l 2.1 4.9 -2.1 10.2 c -1.1 5.5 -2.1 11.2 -2.1 12.5 0 1.3 -1.3 5.2 -3 8.6 -1.6 3.5 -3.2 7.8 -3.6 9.8 -0.3 1.9 -1.2 3.9 -2 4.6 -2.5 2.1 -1.5 2.8 4.4 3.2 3.1 0.2 -39.7 0.3 -95.3 0.3 -61.6 -0.1 -84.3 -0.3 -58.1 -0.6 38.3 -0.4 42.7 -0.7 41.1 -2 -1 -0.8 -2.4 -3 -3.2 -4.7 -1.1 -2.8 -1.1 -3.8 0.1 -6.7 1.7 -4 4.2 -5 9.9 -4 2.3 0.5 4.9 0.8 5.7 0.8 4.8 -0.2 19 -13.6 19 -17.9 0 -2.3 -4.7 -8.9 -8 -11.2 -1.9 -1.3 -10.3 -11.8 -11.1 -13.8 -1.9 -4.8 -7.5 -13.5 -8.6 -13.5 -0.8 0 -1.2 0.4 -0.9 0.8 0.3 0.5 -1.9 0.7 -4.8 0.4 -5.7 -0.5 -17.2 2.3 -26.4 6.4 -6.7 3 -25.4 8.4 -31.2 9 -2.5 0.3 -5.8 1 -7.4 1.5 -2 0.6 -3.3 0.5 -4.2 -0.2 -1 -0.9 -1.5 -0.7 -2 0.4 -0.3 0.9 -1.1 1.4 -1.8 1.1 -0.7 -0.3 -4.3 2.6 -8 6.3 -6.9 7 -10.3 12.9 -16.7 29 -3.5 9 -7.5 16.3 -8.9 16.3 -0.6 0 -1 0.4 -1 1 0 0.5 5.4 1.1 12.8 1.3 7 0.1 1.7 0.3 -11.8 0.3 -13.5 0 -22.8 -0.1 -20.8 -0.3 l 3.7 -0.4 -1.9 -3.7 c -2.9 -5.3 -2.6 -8.8 1 -12.3 2.5 -2.6 3.6 -3 7.2 -2.7 l 4.3 0.3 0.3 -6.5 c 0.5 -10.8 -2.7 -23 -6.1 -23 -0.7 0 -4.2 2.3 -7.7 5 -13 10.1 -29.1 20 -36.6 22.6 -2.7 0.9 -7.6 2.9 -10.9 4.4 -3.3 1.5 -10 4.2 -15 6 -4.9 1.8 -11.9 4.7 -15.5 6.4 l -6.5 3.1 40 0.5 c 36.9 0.5 35.3 0.5 -20 0.6 -33 0 -58.1 -0.1 -55.7 -0.3 z  m 334.1 -3.2 c -4.5 -6.1 -0.1 -14.9 6.8 -13.8 4.3 0.7 5.9 -1.6 6.7 -10 0.7 -7.9 -0.1 -12.1 -2.8 -13.8 -1.1 -0.7 -6.6 -1.8 -12.1 -2.4 -8.8 -1 -11.2 -1.7 -19.8 -6 -5.4 -2.6 -10 -4.4 -10.3 -3.9 -0.3 0.5 0.4 2.4 1.5 4.3 1.1 1.9 1.8 4.1 1.5 4.9 -0.3 0.8 -0.1 1.7 0.5 2.1 1.9 1.1 -4.4 11.7 -9.7 16.5 -2.7 2.5 -9.5 8.6 -15 13.5 -5.5 5 -10.1 9.6 -10.1 10.3 -0.1 0.9 7 1.2 32.4 1.2 l 32.6 0 -2.2 -2.9 z  m -280.1 -111.6 c 0.9 -1.9 0.8 -2.8 -0.4 -4 -2.4 -2.3 -5.4 -1.9 -5.5 0.8 -0.4 6.8 3.4 8.8 5.9 3.2 z "/>
  <path d="M 410 278.5 c 0 -0.3 0.2 -0.5 0.5 -0.5 0.3 0 0.5 0.2 0.5 0.5 0 0.3 -0.2 0.5 -0.5 0.5 -0.3 0 -0.5 -0.2 -0.5 -0.5 z "/>
 </g>
</svg>