<svg xmlns="http://www.w3.org/2000/svg" version="1.1" xmlns:xlink="http://www.w3.org/1999/xlink" xmlns:svgjs="http://svgjs.dev/svgjs" viewBox="0 0 800 800"><defs><filter id="ssspot-filter" x="-20%" y="-20%" width="140%" height="140%" filterUnits="objectBoundingBox" primitiveUnits="userSpaceOnUse" color-interpolation-filters="sRGB">
	<feTurbulence type="turbulence" baseFrequency="0.022 0.218" numOctaves="2" seed="118" stitchTiles="stitch" x="0%" y="0%" width="100%" height="100%" result="turbulence"></feTurbulence>
	<feGaussianBlur stdDeviation="0 3" x="0%" y="0%" width="100%" height="100%" in="turbulence" edgeMode="duplicate" result="blur"></feGaussianBlur>
	<feDisplacementMap in="SourceGraphic" in2="blur" scale="32" xChannelSelector="R" yChannelSelector="B" x="0%" y="0%" width="100%" height="100%" result="displacementMap"></feDisplacementMap>
</filter></defs><rect width="100%" height="100%" fill="hsl(32, 100%, 89%, 0)"></rect><g fill="hsl(0, 0%, 81%)" filter="url(#ssspot-filter)"><circle r="4.706936551468129" cx="779.2659696406529" cy="110.71290532934178" opacity="0.6657676090028255"></circle><circle r="6.150883219929627" cx="180.57216200311927" cy="21.50018854832156" opacity="0.5711065326073945"></circle><circle r="6.5281479392648345" cx="607.3092038547595" cy="315.5313142696824" opacity="0.5948189602124697"></circle><circle r="6.565630084846181" cx="602.0019650534264" cy="783.1784182115869" opacity="0.21956120955358419"></circle><circle r="5.89927958260682" cx="769.419464796606" cy="204.82881989898272" opacity="0.9010554944111502"></circle><circle r="4.267359741688656" cx="16.07592847629053" cy="739.5604257619199" opacity="0.17166816150239073"></circle><circle r="3.311714580022025" cx="385.5636825073205" cy="604.7443251162784" opacity="0.49926811935437854"></circle><circle r="5.414318382168747" cx="702.7045515482372" cy="140.10577624054167" opacity="0.38727456764813994"></circle><circle r="7.021607383684561" cx="640.0795490339746" cy="141.0381669478311" opacity="0.3994750530639437"></circle><circle r="5.745832695375558" cx="272.7799851674502" cy="661.4569850300086" opacity="0.46891475503971414"></circle><circle r="7.507963761306279" cx="139.55689857056487" cy="686.4076868509318" opacity="0.3068119923698769"></circle><circle r="7.446289791241433" cx="393.52753699275996" cy="324.6360252958225" opacity="0.4323536695360144"></circle><circle r="6.671764724263183" cx="682.6356544213448" cy="173.94874617557878" opacity="0.10305147895595551"></circle><circle r="3.868763678476476" cx="102.13374014441318" cy="644.3974725466118" opacity="0.28438640094212675"></circle><circle r="6.502769894945622" cx="616.0133513681736" cy="432.88291476599335" opacity="0.5707908916645983"></circle><circle r="5.588677881154997" cx="253.80322067578783" cy="781.0596327648695" opacity="0.7554568658402937"></circle><circle r="5.537016241495365" cx="97.12416709543497" cy="14.22972884235054" opacity="0.7342977626193522"></circle><circle r="7.200101515331671" cx="341.38309981177946" cy="740.1970987167106" opacity="0.8697745138054153"></circle><circle r="6.028042021043276" cx="721.7188509502713" cy="506.6762799040099" opacity="0.11483256033560596"></circle><circle r="3.576981070366668" cx="285.02804183022624" cy="286.43147558180686" opacity="0.6576592762669539"></circle><circle r="4.5926732625763345" cx="741.049349342452" cy="541.5208718665656" opacity="0.385812198764402"></circle><circle r="3.644518190498468" cx="141.989104212696" cy="39.06922275029914" opacity="0.28791891737735864"></circle><circle r="4.937277201592011" cx="360.191049582325" cy="413.4672564684194" opacity="0.438567392203313"></circle><circle r="6.829768382226554" cx="191.49087664171793" cy="704.4086684350085" opacity="0.9761360697195579"></circle><circle r="6.189121274802428" cx="267.85832048721977" cy="231.92824221317215" opacity="0.604909160696327"></circle><circle r="8.491540298901201" cx="269.2341448136102" cy="750.2819014948619" opacity="0.5048959380068664"></circle><circle r="5.056173932344272" cx="466.70835065041456" cy="787.101329546707" opacity="0.22685316706572548"></circle><circle r="6.693250699354896" cx="232.39520933344997" cy="123.54924225653441" opacity="0.13938522760631505"></circle><circle r="7.03323951258099" cx="269.6849659432781" cy="47.03668158045276" opacity="0.7874249387118811"></circle><circle r="5.402989705217121" cx="579.7093040655008" cy="512.2248265510117" opacity="0.8378150256060383"></circle><circle r="4.170971299381641" cx="787.0183662150291" cy="421.9658226099183" opacity="0.32710226373793905"></circle><circle r="6.333317076191838" cx="616.1995021429561" cy="567.1986325263795" opacity="0.6942007669835641"></circle><circle r="3.480363538286267" cx="324.89684918996085" cy="616.2587270685318" opacity="0.1543392534247872"></circle><circle r="4.758567837116853" cx="296.1144414747437" cy="430.71673969426166" opacity="0.8707445583581765"></circle><circle r="5.185136242538672" cx="84.7092364322529" cy="727.2797735712259" opacity="0.4712553454003563"></circle><circle r="4.499171729613069" cx="474.7706451826894" cy="169.32836242307147" opacity="0.3764966186900217"></circle><circle r="4.357153834922011" cx="238.21941324492315" cy="386.4358939667713" opacity="0.764206109397407"></circle><circle r="6.980958736913173" cx="177.46709127291666" cy="676.0819904306395" opacity="0.22159130896192952"></circle><circle r="4.331705772023287" cx="341.61275680104427" cy="35.68306905294018" opacity="0.4849348480583745"></circle><circle r="6.492010438339807" cx="322.8392712226187" cy="651.9171019489755" opacity="0.6120172981654187"></circle><circle r="6.531898461402158" cx="177.46175184385436" cy="571.2413808180551" opacity="0.9086383023432274"></circle><circle r="4.6848738505901" cx="363.97484358864887" cy="586.3357414964528" opacity="0.2723055058376319"></circle><circle r="6.921482785028948" cx="325.1866161157825" cy="285.7550961669731" opacity="0.8742225056941333"></circle><circle r="7.044793330902364" cx="673.2862863872901" cy="701.2577245168242" opacity="0.5643262791339828"></circle><circle r="4.796365233715326" cx="561.6067629700626" cy="664.0541248805763" opacity="0.632821157561078"></circle><circle r="5.167132512410594" cx="558.8716048506085" cy="691.7530147831042" opacity="0.7366293661487588"></circle><circle r="7.8141059720628885" cx="14.641459859693907" cy="20.47749111437794" opacity="0.39722230779189127"></circle><circle r="7.998532910117106" cx="473.48162882399515" cy="261.19227874766733" opacity="0.5148094744549989"></circle><circle r="11.2616596847026" cx="18.85158868293661" cy="668.6402501211456" opacity="0.1786662712569858"></circle><circle r="4.061153309530493" cx="285.03364072199486" cy="539.6063767445183" opacity="0.3335263872498964"></circle><circle r="4.624015362763247" cx="25.74127076962426" cy="208.41718028300835" opacity="0.22508340810806438"></circle><circle r="4.899993424705832" cx="662.9760695675852" cy="65.36012601847172" opacity="0.6604331450711706"></circle><circle r="5.133560199493406" cx="286.7547294112898" cy="15.473602975996863" opacity="0.3661356112450742"></circle><circle r="4.9415693070861195" cx="703.8819820798062" cy="222.45955352245699" opacity="0.8583062011446828"></circle><circle r="5.153855526147595" cx="24.41479536606273" cy="272.0416412003656" opacity="0.7219142993976672"></circle><circle r="8.185494941768166" cx="385.7730428584245" cy="153.43655770284911" opacity="0.5996213752728682"></circle><circle r="3.7448670862953515" cx="189.29566817309097" cy="606.5243091011029" opacity="0.5530541599616934"></circle><circle r="3.9277312301492904" cx="255.1295738425575" cy="625.2951140597382" opacity="0.33927200220644116"></circle><circle r="5.153014838482516" cx="310.07056156471094" cy="234.68180137103198" opacity="0.4635392714990382"></circle><circle r="5.760193768274485" cx="95.67485694616961" cy="419.52524164799695" opacity="0.5059245710945912"></circle><circle r="7.054834692809228" cx="254.0034834158946" cy="200.65430543503743" opacity="0.6364273775633673"></circle><circle r="8.198061618537192" cx="158.06513622629538" cy="721.5685118520132" opacity="0.23338429595663174"></circle><circle r="5.1638615069992815" cx="530.674536259509" cy="455.3161909104908" opacity="0.8279720088688968"></circle><circle r="10.14857770613197" cx="367.53865371090217" cy="283.2488825318496" opacity="0.6615603203828434"></circle><circle r="4.425449223414893" cx="554.4613462826685" cy="616.2847649307034" opacity="0.738417513480263"></circle><circle r="5.731821127527119" cx="570.915227838674" cy="783.5427927527418" opacity="0.13880940698724886"></circle><circle r="6.89171637070813" cx="17.387311577016735" cy="169.24829639360263" opacity="0.49196646072586736"></circle><circle r="8.646937768848785" cx="531.253455178479" cy="304.9084639618607" opacity="0.680963259138195"></circle><circle r="7.955442730458444" cx="454.53443991530145" cy="299.68177401361095" opacity="0.4639926728147009"></circle><circle r="5.0489365465455425" cx="490.58847032058617" cy="125.29687890242755" opacity="0.27011193545057965"></circle><circle r="6.925515326224417" cx="645.3650607288376" cy="686.6277957187962" opacity="0.3755176075831397"></circle><circle r="4.306133955030953" cx="113.5528796719034" cy="45.95573400061724" opacity="0.18391091596437056"></circle><circle r="5.613655125024888" cx="129.11441161549845" cy="584.1504844724523" opacity="0.6597395558326115"></circle><circle r="5.6362888761313705" cx="435.9620303528008" cy="645.2056829008619" opacity="0.9357143558140488"></circle><circle r="7.9388372385303" cx="782.3960135423185" cy="701.2261461378063" opacity="0.8990337872292127"></circle><circle r="4.652511617885688" cx="322.9132333006586" cy="53.499590318275104" opacity="0.834693164794454"></circle><circle r="5.8662059371580915" cx="264.40723639062026" cy="604.4024107170682" opacity="0.4481285496551549"></circle><circle r="3.772570853064268" cx="623.1427676909726" cy="231.55755595648176" opacity="0.958126137663161"></circle><circle r="5.769036220221928" cx="282.7924598679691" cy="492.6648419589822" opacity="0.11398266484914338"></circle><circle r="5.052302162237127" cx="106.99418851510023" cy="300.53899192028416" opacity="0.14212637174291318"></circle><circle r="5.959851495052732" cx="483.4450943145899" cy="608.6758682203364" opacity="0.16526745743024945"></circle><circle r="4.937142182244292" cx="497.45272082486014" cy="322.4086672380835" opacity="0.24821762562200125"></circle><circle r="7.3979576347913545" cx="603.0013051292273" cy="17.46419670706144" opacity="0.4555952357261248"></circle><circle r="6.601124809759959" cx="776.6620490197312" cy="86.17059942788462" opacity="0.9065281637718721"></circle><circle r="2.454677275694782" cx="460.4763386482111" cy="570.9701056991361" opacity="0.9000478973698418"></circle><circle r="4.390625781257408" cx="354.54116491385093" cy="508.43263008846384" opacity="0.4606800955860457"></circle><circle r="6.205865577614979" cx="733.5438163980186" cy="205.8482563875447" opacity="0.4314203211631209"></circle><circle r="3.8882291183424877" cx="789.3519238148692" cy="742.1099553343254" opacity="0.5754048424179653"></circle><circle r="5.1641057200511415" cx="769.1475213583851" cy="29.65039702978811" opacity="0.13898980383562504"></circle><circle r="6.97623142124701" cx="295.0541793469867" cy="321.65746322727296" opacity="0.8477362934292478"></circle><circle r="6.879901449687164" cx="430.3697158407446" cy="675.8615837657818" opacity="0.7736540858892329"></circle><circle r="6.077910796656985" cx="213.30474229570535" cy="525.9853865318611" opacity="0.47863189858230304"></circle><circle r="7.9664026670047665" cx="503.42132478442704" cy="681.2158155992635" opacity="0.9396676539267508"></circle><circle r="5.993719379889609" cx="307.02682165447436" cy="552.0750222358832" opacity="0.8015639381705433"></circle><circle r="5.924073670365971" cx="54.6578799829855" cy="772.5884005027611" opacity="0.3345096267867472"></circle><circle r="3.261088716891192" cx="236.9750835156654" cy="471.0344364019923" opacity="0.3472552195716656"></circle><circle r="7.021508028753592" cx="626.6346465135981" cy="289.6718746234007" opacity="0.1600699527616239"></circle><circle r="4.5241206812596335" cx="403.90044129858313" cy="407.26177618136745" opacity="0.7874937754263331"></circle><circle r="4.982216966793702" cx="360.2369084158241" cy="483.53085453702937" opacity="0.4387501152498826"></circle><circle r="7.770112597996272" cx="651.6031186330132" cy="437.5816124853406" opacity="0.364133127479348"></circle><circle r="4.818593467890986" cx="788.2238395606939" cy="14.081942753417737" opacity="0.9709655977904512"></circle><circle r="7.78203120553364" cx="591.7215928156025" cy="409.54245819093154" opacity="0.27883176654547115"></circle><circle r="7.264230089678479" cx="272.5220736934441" cy="110.00664019909027" opacity="0.6520746003385696"></circle><circle r="3.545015195314136" cx="664.6277133152959" cy="667.533549269375" opacity="0.5963921385829845"></circle><circle r="2.5695462396144855" cx="388.0837782812072" cy="707.0375913630919" opacity="0.10552695330071171"></circle><circle r="5.096017102460381" cx="82.14029009071875" cy="563.601931030859" opacity="0.9273662743079469"></circle><circle r="5.203022693700008" cx="499.93618199482535" cy="454.78614333648216" opacity="0.38459352079989517"></circle><circle r="3.772550204549511" cx="183.35431652737074" cy="435.61997924861134" opacity="0.16132856771568466"></circle><circle r="5.930489379228595" cx="98.90332661570005" cy="485.60529511292856" opacity="0.6454095421373259"></circle><circle r="10.090128296451066" cx="438.3634497657442" cy="25.63447315148416" opacity="0.6446656834736166"></circle><circle r="4.40833015843835" cx="447.46676674003703" cy="745.2447783786208" opacity="0.1021254065745235"></circle><circle r="6.615835434438668" cx="225.92009318939944" cy="168.66103011775755" opacity="0.4741957259252999"></circle><circle r="4.661795729982851" cx="624.7220714772395" cy="700.5387871390001" opacity="0.143966779567555"></circle><circle r="7.801586307767689" cx="83.66590531734698" cy="453.4383758840623" opacity="0.49016320726723195"></circle><circle r="6.028264091717425" cx="603.821148872123" cy="743.5137150156996" opacity="0.4077735340761611"></circle><circle r="5.862126723456489" cx="220.6626310623508" cy="755.6303974416434" opacity="0.6680516655802848"></circle><circle r="4.962284859172335" cx="101.60946386779298" cy="786.9012891425014" opacity="0.6191000348366227"></circle><circle r="4.354878823976107" cx="222.59635440190866" cy="786.2116988738143" opacity="0.7717069650567729"></circle><circle r="8.462303401789217" cx="136.0485909755599" cy="768.8612647205601" opacity="0.49674283890137416"></circle><circle r="7.606850660629076" cx="191.83727241592112" cy="170.78047628180948" opacity="0.3168065538512708"></circle><circle r="5.076955433432601" cx="569.434947958337" cy="80.88801597580776" opacity="0.6890658455402877"></circle><circle r="4.071040250000972" cx="248.417676674128" cy="558.5601592349886" opacity="0.7038309083207758"></circle><circle r="5.426265662119686" cx="338.1602327215356" cy="559.3776377085156" opacity="0.1969631519030804"></circle><circle r="5.758581327469465" cx="716.9762150760394" cy="343.52274840544897" opacity="0.8798218710403168"></circle><circle r="6.020643378650952" cx="758.1668028770207" cy="362.72491919605505" opacity="0.6101972285019732"></circle><circle r="7.46301205203865" cx="219.13569315345092" cy="561.0019522049316" opacity="0.33115560210261186"></circle><circle r="5.482242205073286" cx="376.0439159563595" cy="194.2918222790167" opacity="0.6331094637836513"></circle><circle r="5.831138558547996" cx="323.78820926031716" cy="402.4602828302871" opacity="0.3994228216838478"></circle><circle r="4.470991562051905" cx="56.332668648157394" cy="251.91162000137834" opacity="0.5054900870302879"></circle><circle r="5.322668761576396" cx="68.79845934691774" cy="605.8567274795655" opacity="0.4362251512912302"></circle><circle r="8.950841961509827" cx="685.0293187193919" cy="493.48275391178487" opacity="0.668142106297445"></circle><circle r="3.953864362490469" cx="578.5211622527338" cy="224.74362551844393" opacity="0.3566489342491005"></circle><circle r="5.18099499908036" cx="729.9132260641582" cy="307.3649530398211" opacity="0.1675278427665883"></circle><circle r="4.2946520382126465" cx="452.7053970814829" cy="498.1475359603826" opacity="0.2971965621822768"></circle><circle r="4.9129830172372415" cx="603.076678641679" cy="535.4235787626644" opacity="0.6589796043676877"></circle><circle r="5.6735561442984475" cx="36.9135123742688" cy="714.5522491433723" opacity="0.48942775191509946"></circle><circle r="7.619792336400273" cx="49.06624421825902" cy="355.0229652722646" opacity="0.24151240449021527"></circle><circle r="3.286549550111449" cx="517.0479280359665" cy="429.7311950048161" opacity="0.8224855735815833"></circle><circle r="7.04588694024727" cx="90.99175208213667" cy="756.2460630321191" opacity="0.6638916151198465"></circle><circle r="7.266909438903767" cx="95.13592816591346" cy="696.6128354732159" opacity="0.10765153967664784"></circle><circle r="4.624460152801245" cx="151.64863672313976" cy="306.67777364116273" opacity="0.35378955889684016"></circle><circle r="3.2377998468814724" cx="155.55397975192338" cy="227.8076453538973" opacity="0.471849948080605"></circle><circle r="3.039865787886807" cx="276.2425232311418" cy="518.0355624534142" opacity="0.6539305197680372"></circle><circle r="4.352755119626404" cx="211.5369250862114" cy="595.7567940586475" opacity="0.43701547581242606"></circle><circle r="8.810870295664923" cx="324.97116965969605" cy="189.26584322295452" opacity="0.30956276887472167"></circle><circle r="4.540103116306458" cx="284.6045946455089" cy="260.2034073931607" opacity="0.12092273002313711"></circle><circle r="6.0654408869022785" cx="637.5536838333632" cy="397.8689932938967" opacity="0.7008974870574842"></circle><circle r="6.385404357590446" cx="44.29241067179409" cy="633.4755888611503" opacity="0.7219506725341583"></circle><circle r="3.929642782790718" cx="149.55620191534652" cy="101.42496222353014" opacity="0.4890297351828441"></circle><circle r="4.562796625368358" cx="220.20341408270323" cy="212.5465590231201" opacity="0.9491207354808173"></circle><circle r="8.545980102662249" cx="428.3485044449655" cy="343.3266174994388" opacity="0.9563034684594334"></circle><circle r="4.8701084157851495" cx="496.66928835912637" cy="780.7921873976692" opacity="0.8067088397566073"></circle><circle r="4.343837180031586" cx="396.6196531877607" cy="681.9161657151591" opacity="0.29636511854220976"></circle><circle r="4.222594259118363" cx="433.4299260297318" cy="411.72675949062096" opacity="0.734775068073651"></circle><circle r="5.660588960398297" cx="99.53578936884612" cy="605.4309043126232" opacity="0.8273265984359409"></circle><circle r="4.923341793913213" cx="238.36496348273502" cy="355.3758949875465" opacity="0.6108489929401492"></circle><circle r="4.413953806376613" cx="217.385086033751" cy="455.34843678943434" opacity="0.5136748970420868"></circle><circle r="7.586024102685377" cx="392.09632175358837" cy="241.5559381794795" opacity="0.19666465359473173"></circle><circle r="6.088151065613883" cx="159.7216671548842" cy="278.2748606899553" opacity="0.7120215939489049"></circle><circle r="3.4142006530180717" cx="7.538384134120472" cy="103.23283763801086" opacity="0.9847785465305458"></circle><circle r="8.011188892492921" cx="565.7794604212714" cy="319.3246314465434" opacity="0.6627938585431703"></circle><circle r="8.262554912604704" cx="223.4187873851144" cy="315.2195705712466" opacity="0.9337915183381141"></circle><circle r="6.402520824385702" cx="447.52363346116" cy="112.83617225079892" opacity="0.693523311659894"></circle><circle r="4.47258067604426" cx="734.6106485414103" cy="32.33017852868487" opacity="0.21219343413171565"></circle><circle r="5.917379040782959" cx="103.95131348036311" cy="333.5841144644994" opacity="0.588127833083909"></circle><circle r="3.929404730652998" cx="645.3969946893743" cy="654.4989248966749" opacity="0.33426123950898157"></circle><circle r="4.83687136725728" cx="172.94909318824068" cy="517.3206606821442" opacity="0.6282347083343266"></circle><circle r="4.2641184857647225" cx="93.98978664605383" cy="89.83066736813014" opacity="0.31255910283986826"></circle><circle r="5.77728371444216" cx="757.505116460192" cy="508.04593500869555" opacity="0.45046462118749364"></circle><circle r="2.992246524017973" cx="761.8926268948085" cy="128.81630211713426" opacity="0.8583991512373771"></circle><circle r="7.711534104184656" cx="20.80883590400561" cy="54.325546141517414" opacity="0.5780134526627945"></circle><circle r="4.978737934899013" cx="205.8604768357536" cy="381.7355030893381" opacity="0.19413183240333054"></circle><circle r="4.6627756600712305" cx="611.4217464601236" cy="256.2845439147492" opacity="0.9649737263738718"></circle><circle r="5.390906285581234" cx="13.603407593880698" cy="547.9820079912251" opacity="0.5822275049966472"></circle><circle r="5.818874592741652" cx="593.9524830255718" cy="59.31821882265608" opacity="0.27085125967203416"></circle><circle r="7.716902913835176" cx="485.8839154037147" cy="379.58190704920804" opacity="0.15730351338358373"></circle><circle r="4.233980843788676" cx="313.8151448797162" cy="583.2257678076029" opacity="0.10450800394841947"></circle><circle r="8.148240613785688" cx="283.6201248264202" cy="181.1850717918334" opacity="0.8124075986616338"></circle><circle r="5.059476529694016" cx="146.60713709058606" cy="13.262754320634805" opacity="0.5413478981226116"></circle><circle r="6.235652379155896" cx="599.9386433010096" cy="672.5905852518916" opacity="0.9220830052998474"></circle><circle r="6.004603200503725" cx="502.0189021404773" cy="583.476201406843" opacity="0.1781543365801477"></circle><circle r="4.0809115735008685" cx="296.7009609702099" cy="55.08996687602012" opacity="0.558886435217645"></circle><circle r="5.5436959925297105" cx="167.63728590369868" cy="410.843213410565" opacity="0.7676341933070288"></circle><circle r="8.042566477102492" cx="211.34259183650826" cy="415.05848135492073" opacity="0.4120356214200306"></circle><circle r="6.744461480605769" cx="618.779833976003" cy="201.85771853612474" opacity="0.3140807405831896"></circle><circle r="3.5262260114130384" cx="472.277158919443" cy="731.2381578934528" opacity="0.1983024245173576"></circle><circle r="6.791795980972062" cx="699.2554929058696" cy="99.52766337801256" opacity="0.5593710388766984"></circle><circle r="3.5088666089745932" cx="284.05885954891505" cy="403.0366471566171" opacity="0.43778052348002294"></circle><circle r="6.789961500387294" cx="82.95092029009491" cy="349.99436427848303" opacity="0.6144972511018221"></circle><circle r="4.353249357859051" cx="305.8593396682481" cy="478.83536578188864" opacity="0.33180576662234507"></circle><circle r="6.2281643965459255" cx="724.2198973754882" cy="784.3283644200784" opacity="0.23168394475408258"></circle><circle r="5.17678849260446" cx="72.57117843008577" cy="642.9543722030245" opacity="0.6891426497334989"></circle><circle r="6.455250003988684" cx="129.66162574118502" cy="480.7978329352224" opacity="0.11529540264121595"></circle><circle r="5.037714927294908" cx="576.4810774740126" cy="724.9965598590719" opacity="0.3405330571443586"></circle><circle r="6.9924821368454655" cx="574.6788039787467" cy="165.39904119155503" opacity="0.18610807831794518"></circle><circle r="7.543168246537748" cx="532.7587233333198" cy="169.9531488830607" opacity="0.9838757603205711"></circle><circle r="2.9692591675190596" cx="18.85740212671959" cy="91.61178240593468" opacity="0.5261072260714595"></circle><circle r="7.122384614303617" cx="531.8416703365323" cy="583.0144419806046" opacity="0.8191562599664556"></circle><circle r="3.5169692288030197" cx="688.2919171242103" cy="206.7662491760318" opacity="0.453618331441895"></circle><circle r="3.595165796399008" cx="359.7301209313303" cy="721.6587930912546" opacity="0.3203163788275243"></circle><circle r="6.398956169183787" cx="294.7213951303388" cy="651.8417697269483" opacity="0.6447993647924585"></circle><circle r="4.751516686556596" cx="124.9392649936254" cy="128.95531843386755" opacity="0.13036750106247652"></circle><circle r="6.01140533209094" cx="212.86754489855974" cy="47.99736166661904" opacity="0.6428918741726009"></circle><circle r="9.562619327972214" cx="437.0833737848814" cy="74.12115408087635" opacity="0.11047029100904203"></circle><circle r="5.845208123307943" cx="100.91648471142685" cy="239.37452211351936" opacity="0.472930092448989"></circle><circle r="7.938303746342235" cx="448.2867894091323" cy="386.0320506011069" opacity="0.7867707820486148"></circle><circle r="9.007185050245376" cx="547.9263191188473" cy="397.2442016500939" opacity="0.6488172406992736"></circle><circle r="4.038573724277938" cx="448.5804983426997" cy="524.1406236484361" opacity="0.5085693089388712"></circle><circle r="4.432617315331257" cx="95.1761483331864" cy="383.9765683790953" opacity="0.8374001214751832"></circle><circle r="5.562239110940403" cx="591.6141516815815" cy="600.0594305051497" opacity="0.5864639451500034"></circle><circle r="6.371250712904642" cx="59.43715863257836" cy="62.024499489411184" opacity="0.7578319652297197"></circle><circle r="4.1895192521107765" cx="125.8157634452687" cy="719.7069595484078" opacity="0.4503312699706733"></circle><circle r="3.704808888076573" cx="254.89978958882827" cy="331.30378584827105" opacity="0.8752756583066378"></circle><circle r="4.381129560915165" cx="683.5168677880007" cy="350.35989559717666" opacity="0.9639405853172767"></circle><circle r="5.727087908168624" cx="145.25146077210826" cy="67.43014424242588" opacity="0.6837250687661973"></circle><circle r="7.776228327215698" cx="694.4779852603557" cy="589.3381374523868" opacity="0.20190557967555406"></circle><circle r="3.536262288988993" cx="19.104673218821425" cy="341.3655290837468" opacity="0.43793306865715864"></circle><circle r="4.661376315403354" cx="262.99591409464125" cy="305.5525307107846" opacity="0.47542264401308576"></circle><circle r="4.446919868985743" cx="399.86110470901997" cy="774.1362132713932" opacity="0.12305512080829724"></circle><circle r="8.093413568669254" cx="629.1772001982127" cy="99.14622107600115" opacity="0.8079590379498707"></circle><circle r="2.762925029521946" cx="375.9884439094186" cy="722.8699997848423" opacity="0.8208398068746006"></circle><circle r="8.227505307393479" cx="18.463872105768772" cy="781.0223957606396" opacity="0.6299136058454736"></circle><circle r="3.736412733260786" cx="212.24708240327013" cy="13.762534977995745" opacity="0.4659365457470943"></circle><circle r="5.790465456009267" cx="747.378749640915" cy="584.7708158162312" opacity="0.10483621021520877"></circle><circle r="7.047915470354708" cx="91.71936922807554" cy="271.8709834123123" opacity="0.2769063302214622"></circle><circle r="6.798822752954842" cx="205.82275212368998" cy="113.86726048630723" opacity="0.13712951206500618"></circle><circle r="6.373340532460947" cx="272.31906589798353" cy="570.9966846463911" opacity="0.5179298590394481"></circle><circle r="8.261418755341642" cx="299.1259869660852" cy="141.07322232387293" opacity="0.1453137835543532"></circle><circle r="8.67503836442712" cx="150.79766344875287" cy="547.3198404167977" opacity="0.8119074795178453"></circle><circle r="4.447974591437646" cx="125.31472014917311" cy="272.96496043300874" opacity="0.699574556265844"></circle><circle r="4.58812499104076" cx="261.75140935076433" cy="81.27975668260814" opacity="0.3861506540183255"></circle><circle r="6.123345274824837" cx="712.0888033095546" cy="13.221789237873473" opacity="0.7577564816632403"></circle><circle r="4.6795865840221875" cx="73.4616262455752" cy="229.55156188172958" opacity="0.46063468196080803"></circle><circle r="6.3391226061879395" cx="239.2378380144921" cy="591.9833159630641" opacity="0.661039527904225"></circle><circle r="5.11915580727055" cx="698.6573705428121" cy="375.44931518765935" opacity="0.621376250805668"></circle><circle r="8.680793100344408" cx="133.69363321363886" cy="623.2308631169532" opacity="0.2196872694281502"></circle><circle r="7.00137597868952" cx="442.9155109563025" cy="201.0509768316069" opacity="0.8509465228968676"></circle><circle r="5.105437697469494" cx="296.8717814256887" cy="782.7071492947358" opacity="0.767447449484255"></circle><circle r="2.942094082064125" cx="455.967007073446" cy="548.827323224376" opacity="0.2893179101377132"></circle><circle r="5.873014525889784" cx="161.5468056967438" cy="464.2480540593631" opacity="0.9992983638206089"></circle><circle r="4.752681161186343" cx="590.3199074950269" cy="246.33844775926377" opacity="0.12334936129324689"></circle><circle r="4.061157542349644" cx="412.8707152006246" cy="206.17151719128466" opacity="0.3067239414259276"></circle><circle r="3.98737446583048" cx="772.8005683235922" cy="603.4625706965045" opacity="0.7722709214608325"></circle><circle r="5.7179504002881565" cx="104.1897395093626" cy="174.6751682983425" opacity="0.46236815033856793"></circle><circle r="6.5548410010999145" cx="643.6708029329661" cy="17.966970228583797" opacity="0.3751995076031195"></circle><circle r="7.852642413314353" cx="757.4726820316059" cy="60.3112499776531" opacity="0.3253747118627027"></circle><circle r="6.754707432223636" cx="17.25240518414576" cy="435.02814507744085" opacity="0.7898373406171492"></circle><circle r="8.672185933850328" cx="129.8633732198543" cy="161.7030465091052" opacity="0.9786147451337542"></circle><circle r="5.249967353856212" cx="269.6230252105184" cy="425.7604866190793" opacity="0.6367198690696173"></circle><circle r="4.392708161511246" cx="627.3271177352274" cy="646.8582577199658" opacity="0.8180448637523876"></circle><circle r="5.016729637081866" cx="412.14705035789166" cy="708.1404253275853" opacity="0.3009479693645528"></circle><circle r="4.912570859543037" cx="182.3170138963488" cy="58.41546899547634" opacity="0.2800267819939902"></circle><circle r="6.008883510150724" cx="317.35658214419766" cy="426.601317837837" opacity="0.5783355915144381"></circle><circle r="5.586536926410786" cx="240.73299862630697" cy="279.80883962885844" opacity="0.18197571313860747"></circle><circle r="6.257735032353763" cx="425.9347989797389" cy="445.55567650933284" opacity="0.8203384274249207"></circle><circle r="6.422846149623964" cx="361.7968572902481" cy="349.00135900580915" opacity="0.9504974345943955"></circle><circle r="6.441651297362558" cx="330.1418419355006" cy="331.20944111081656" opacity="0.18610582029510742"></circle><circle r="6.471704449115634" cx="39.987380724547066" cy="520.3540799007662" opacity="0.3451161751450543"></circle><circle r="5.132956807228883" cx="378.41441685175135" cy="550.7006305219398" opacity="0.5156686616016799"></circle><circle r="8.78507565433384" cx="691.5695469437267" cy="540.3995732306502" opacity="0.975110572677763"></circle><circle r="4.246447357030702" cx="720.8125921875165" cy="673.4441856401902" opacity="0.5541860386088927"></circle><circle r="3.2760918116428783" cx="725.7529308665415" cy="156.6813013194712" opacity="0.46429405244627797"></circle><circle r="4.5293522381813975" cx="256.02298719517154" cy="487.6391314045974" opacity="0.5999337519110105"></circle><circle r="8.919435829456745" cx="58.236502331954256" cy="483.00059686382815" opacity="0.2686754465100776"></circle><circle r="10.230648168988555" cx="516.3210685095495" cy="205.76112568517547" opacity="0.5807993055139293"></circle><circle r="6.297941099824646" cx="453.49126054267623" cy="592.5560617315983" opacity="0.24738661235166742"></circle><circle r="3.6973149257128974" cx="49.96850279051764" cy="586.2257025787482" opacity="0.30752602671740514"></circle><circle r="4.685560024704978" cx="720.4009367374751" cy="241.94163257410045" opacity="0.7317456759344179"></circle><circle r="3.2605359300791434" cx="783.1601424998121" cy="258.86003015498306" opacity="0.1258051343747379"></circle><circle r="4.187715561497223" cx="330.88670975461696" cy="125.61915076112024" opacity="0.5166621632189771"></circle><circle r="4.947600863221151" cx="560.6337203243326" cy="43.977276915523575" opacity="0.47205128583273726"></circle><circle r="3.692680841179013" cx="341.48672335790286" cy="440.6011620452184" opacity="0.6486095022666891"></circle><circle r="6.5463530153370675" cx="368.57624696334045" cy="627.6061557484986" opacity="0.6350183976253411"></circle><circle r="6.701423413562292" cx="767.4162403253163" cy="733.1237944499194" opacity="0.6427579553030105"></circle><circle r="3.2209729568133367" cx="789.3609072632557" cy="779.6088969059501" opacity="0.5725269829038498"></circle><circle r="5.31964620619946" cx="783.336090810773" cy="230.31439498237324" opacity="0.8349967646917383"></circle><circle r="8.950163055722566" cx="660.4708534564705" cy="304.080066890175" opacity="0.9437246905674795"></circle><circle r="6.086274428393139" cx="560.3536491980336" cy="455.18198566900537" opacity="0.5424561936606042"></circle><circle r="6.197559501349035" cx="509.93760260092347" cy="546.3793143574653" opacity="0.39490549837677846"></circle><circle r="3.6506998939373916" cx="483.53062733596323" cy="566.2646558517445" opacity="0.26080777021712565"></circle><circle r="6.3855250154408845" cx="521.2227875858861" cy="140.11137236289238" opacity="0.970232973337873"></circle><circle r="4.345669164879561" cx="59.61732455540994" cy="98.98986232642032" opacity="0.7478559630828701"></circle><circle r="4.779030749304205" cx="71.24149079311499" cy="148.2099553268235" opacity="0.9894223111121165"></circle><circle r="7.641423316676149" cx="21.195549915318256" cy="476.1909430033132" opacity="0.50491052438984"></circle><circle r="4.507301845853279" cx="763.9102466452246" cy="467.8169996309573" opacity="0.2494763950990191"></circle><circle r="7.258631425160035" cx="688.778402864838" cy="277.333718266998" opacity="0.42783675822096745"></circle><circle r="3.3803439319287554" cx="81.33244517371395" cy="182.61921668090608" opacity="0.47239290181918847"></circle><circle r="7.104997408687217" cx="393.37571182045946" cy="466.7262487430287" opacity="0.6738407992297232"></circle><circle r="5.31819109014445" cx="158.2461778074543" cy="253.13731811849766" opacity="0.47536866096903685"></circle><circle r="5.312775607322093" cx="369.1709486938927" cy="755.4905406718086" opacity="0.4286952350535057"></circle><circle r="7.055151786476543" cx="198.30916178225897" cy="733.9803495829848" opacity="0.10846924041011924"></circle><circle r="5.700465762572319" cx="548.8828124167279" cy="739.312694202841" opacity="0.40457928503180474"></circle><circle r="5.7605872323528455" cx="500.0671670117062" cy="162.636921193094" opacity="0.6900183292362211"></circle><circle r="7.4096412235673075" cx="695.6407238465607" cy="47.84535654312435" opacity="0.531898330630663"></circle><circle r="4.994214465730609" cx="453.4002853164861" cy="709.9644427932025" opacity="0.8214465200556812"></circle><circle r="4.483809751810821" cx="340.2533155097763" cy="595.2942797224767" opacity="0.6619650987455794"></circle><circle r="7.307843754687221" cx="331.332081468882" cy="92.84808261128097" opacity="0.5212499226733779"></circle><circle r="4.544736950862483" cx="455.03517296426185" cy="449.26216796203784" opacity="0.17550704894852437"></circle><circle r="5.838951192461411" cx="266.34130748466197" cy="381.81038132492586" opacity="0.8379819888276229"></circle><circle r="6.949264994210109" cx="54.185412927726915" cy="430.4838951021565" opacity="0.7671827020203111"></circle><circle r="5.7015821139310745" cx="196.72565182904458" cy="463.15389868374206" opacity="0.5837805238301066"></circle><circle r="7.858949877589347" cx="553.7027224230814" cy="196.58241445448394" opacity="0.25382134147337654"></circle><circle r="6.448334021917743" cx="164.32318297992632" cy="140.03448118554962" opacity="0.557195108665589"></circle><circle r="6.557107952625007" cx="139.9531242376322" cy="349.99628788713557" opacity="0.13278423797391836"></circle><circle r="7.62224039112821" cx="530.9894653842019" cy="514.8038905406777" opacity="0.6151582490622135"></circle><circle r="7.288306075251276" cx="740.3434417890094" cy="398.0315867776575" opacity="0.5344531456600118"></circle><circle r="3.9765628619146707" cx="691.1871506516839" cy="248.7630971699164" opacity="0.5419393953204759"></circle><circle r="7.3224999795004875" cx="472.2946957571689" cy="658.2747977708956" opacity="0.6090859098809834"></circle><circle r="6.377817783990105" cx="729.3968525278962" cy="458.01637100357146" opacity="0.617083394217715"></circle><circle r="4.638914232181228" cx="259.8739091288746" cy="454.5749574370547" opacity="0.6719290573417204"></circle><circle r="5.680610572333436" cx="629.6752942595905" cy="471.81388613718644" opacity="0.2036723057050433"></circle><circle r="4.988165714509289" cx="121.15746545272965" cy="95.05857196481799" opacity="0.17153462168096076"></circle><circle r="7.7812450584690005" cx="702.6941772764166" cy="714.8834639075936" opacity="0.6344814851487569"></circle><circle r="4.332112756975073" cx="120.84300374564971" cy="369.94761803584646" opacity="0.5095292327332621"></circle><circle r="4.24823592020496" cx="103.47459392030223" cy="206.34249138241853" opacity="0.5841383479647012"></circle><circle r="4.248416813429909" cx="128.1567753694713" cy="322.019854569271" opacity="0.47779602514479536"></circle><circle r="5.071283075889599" cx="671.3091811343877" cy="134.79296131653905" opacity="0.3531316632831444"></circle><circle r="9.2605547617744" cx="701.6396246325826" cy="755.7501782848913" opacity="0.9013806657349381"></circle><circle r="7.918147624039886" cx="113.94422098141149" cy="523.6946310640303" opacity="0.5595954035516892"></circle><circle r="4.933042240712597" cx="93.22712660804599" cy="126.73676307553288" opacity="0.7255081980658775"></circle><circle r="8.43603367344253" cx="132.67050668810828" cy="443.781333779779" opacity="0.16466910028282494"></circle><circle r="7.877544699385606" cx="319.22055622839986" cy="512.3381045452877" opacity="0.9494307755970232"></circle><circle r="7.775530474824894" cx="229.11263509382314" cy="682.047582319951" opacity="0.11382205143136352"></circle><circle r="5.244863824948402" cx="11.935993023084933" cy="300.4457230617137" opacity="0.14306252303685554"></circle><circle r="5.0082187297340495" cx="50.98532422616405" cy="18.412605046587736" opacity="0.12579222953985983"></circle><circle r="6.2379965472776355" cx="17.472347921621456" cy="618.8446804600028" opacity="0.14130042496615236"></circle><circle r="6.081986826422227" cx="723.5385117170058" cy="375.7107457157649" opacity="0.1551428581371789"></circle><circle r="4.2769453451603034" cx="394.99054705985475" cy="502.4184611914693" opacity="0.147985659106633"></circle><circle r="7.008497035101352" cx="516.8423931636429" cy="650.0108017241823" opacity="0.6352304565572364"></circle><circle r="3.4009823665746204" cx="706.3534472650691" cy="196.7262475638851" opacity="0.4540412055967936"></circle><circle r="6.536476826663865" cx="523.8003458385139" cy="97.7816514689189" opacity="0.2732541909120434"></circle><circle r="5.939956871224174" cx="115.27443998583652" cy="555.380381018846" opacity="0.2146430011178055"></circle><circle r="4.732249816492956" cx="381.8677251093627" cy="789.7997371970123" opacity="0.7337110335827207"></circle><circle r="7.580365214771876" cx="623.1208711709767" cy="371.9565751571829" opacity="0.5803654858529693"></circle><circle r="4.183002977528744" cx="425.1848080018315" cy="480.95163027488724" opacity="0.896264566399181"></circle><circle r="3.490543557415366" cx="560.3049106512495" cy="104.36653931216487" opacity="0.8096697391474216"></circle><circle r="4.62989460095006" cx="477.33315604135197" cy="412.18336336901973" opacity="0.6590897242306544"></circle><circle r="4.877142975156266" cx="622.3804995629466" cy="172.77868242063172" opacity="0.9953291163029573"></circle><circle r="4.3098300170934785" cx="767.2986637911073" cy="307.55909054105007" opacity="0.927997079855083"></circle><circle r="6.198249486596944" cx="360.86542256172186" cy="70.24996441362681" opacity="0.23094721762654727"></circle><circle r="3.796704104999646" cx="180.0091115912119" cy="486.6984736343683" opacity="0.6555211074450242"></circle><circle r="5.040008035904388" cx="523.2104599752072" cy="761.0654430328235" opacity="0.43443305373455465"></circle><circle r="5.026310645995186" cx="637.8019450151581" cy="598.292769415263" opacity="0.8290010224984548"></circle><circle r="10.192050062716927" cx="668.2430694028942" cy="779.1617274778442" opacity="0.10621462935036845"></circle><circle r="7.231876720560692" cx="762.1854637936591" cy="776.7713919136606" opacity="0.18414776697021773"></circle><circle r="9.401385132230288" cx="466.4243750187494" cy="345.5050312727247" opacity="0.2599316465064684"></circle><circle r="5.382999935920738" cx="432.4881634163238" cy="715.158671318867" opacity="0.1605131221993897"></circle><circle r="6.129075213188045" cx="737.9235136033417" cy="112.87993931791212" opacity="0.3052240986988214"></circle><circle r="8.265620502596695" cx="733.9798619854824" cy="273.27826860440723" opacity="0.7933128918761082"></circle><circle r="6.361945550958458" cx="605.8692402707243" cy="635.950342547015" opacity="0.418951830657326"></circle><circle r="4.053284102154558" cx="675.6157288736497" cy="611.0944101228174" opacity="0.8429173279926857"></circle><circle r="7.541251734246655" cx="74.59912639353728" cy="523.1509406970097" opacity="0.870254331036684"></circle><circle r="5.925944597583868" cx="361.7865093321719" cy="669.4022780742453" opacity="0.2480355788385872"></circle><circle r="4.864268970066926" cx="754.8210696787377" cy="428.6536946903704" opacity="0.5032153948528214"></circle><circle r="3.299250258910683" cx="95.30505924198678" cy="153.35543532118578" opacity="0.5246904054184776"></circle><circle r="5.343549509445307" cx="186.18134117108858" cy="784.9989271883989" opacity="0.9334233021205222"></circle><circle r="2.838323964894898" cx="792.1704288104545" cy="300.2308395987215" opacity="0.578541847822298"></circle><circle r="7.0206409133411825" cx="597.3834281843116" cy="704.52546882936" opacity="0.7311381482448185"></circle><circle r="9.990288868524468" cx="347.85168964766626" cy="229.68704298886047" opacity="0.4937876876997479"></circle><circle r="5.0426533285815704" cx="32.091865035507524" cy="316.9827267219839" opacity="0.8058734993727334"></circle><circle r="5.523966665390217" cx="676.9822358613435" cy="17.373734962942613" opacity="0.47086473183023747"></circle><circle r="9.648924793289604" cx="653.9621616839347" cy="732.3104946216718" opacity="0.9406674532688846"></circle><circle r="5.548002033667494" cx="168.8650044766807" cy="760.8266690910385" opacity="0.337087241622678"></circle><circle r="5.100225519731292" cx="496.4890941154659" cy="512.8248616654207" opacity="0.18330071943282772"></circle><circle r="7.06782654243054" cx="653.5375157841388" cy="546.0966404991846" opacity="0.9968097659162982"></circle><circle r="5.876123375870867" cx="550.5301172149777" cy="353.0554626211979" opacity="0.8082120266954278"></circle><circle r="4.799809031801756" cx="61.87344610110186" cy="289.05680929167295" opacity="0.8450687665482899"></circle><circle r="5.923301305132239" cx="589.9639363677111" cy="472.0865743003696" opacity="0.6912202702790224"></circle><circle r="4.792257487499175" cx="200.53392164281973" cy="650.5660782355014" opacity="0.1897118416346251"></circle><circle r="4.737217318124747" cx="492.16752015630067" cy="486.04799214603247" opacity="0.3511789267159604"></circle><circle r="5.873456918833988" cx="663.607339899927" cy="402.4364204275399" opacity="0.5809392641307771"></circle><circle r="5.681561721490841" cx="257.70217559081203" cy="146.36761435605655" opacity="0.8348464763139857"></circle><circle r="7.2877194093726345" cx="647.3435469086473" cy="339.3614212334631" opacity="0.8693911271479011"></circle><circle r="4.7791534646124605" cx="301.7930093810263" cy="89.05987872794269" opacity="0.3854770318484637"></circle><circle r="5.245615823296328" cx="646.86798639461" cy="223.20435401169615" opacity="0.8796778453269026"></circle><circle r="6.3774058598267604" cx="636.7662245282966" cy="505.79341831274166" opacity="0.7227302233324631"></circle><circle r="3.9780552117731185" cx="339.51367980828496" cy="11.837317186122275" opacity="0.5427957880630908"></circle><circle r="4.914398250140498" cx="788.6009277299953" cy="52.60971273757493" opacity="0.383430178897321"></circle><circle r="5.314609518347622" cx="512.7550463100621" cy="403.7499926514017" opacity="0.6320212772155541"></circle><circle r="6.474800528287405" cx="397.84926703182714" cy="643.7380299872466" opacity="0.6104717852267232"></circle><circle r="4.606628430564215" cx="719.6286154469523" cy="569.1803151675433" opacity="0.5375281445964062"></circle><circle r="3.4075763746832974" cx="553.3296002268776" cy="768.2436197132649" opacity="0.5344863021820992"></circle><circle r="6.259902763025015" cx="471.06761496575297" cy="760.0931545175964" opacity="0.5383244934879862"></circle><circle r="5.026544100686179" cx="560.1704576916217" cy="241.66575836179143" opacity="0.6773314490620186"></circle><circle r="3.133043065091767" cx="740.0645633216067" cy="143.28251321255098" opacity="0.9547105535699824"></circle><circle r="5.951354045179896" cx="688.3720218976631" cy="671.7461562931645" opacity="0.3000004919529934"></circle><circle r="5.273968751405233" cx="306.61865175909327" cy="738.3089306463539" opacity="0.47746314272663404"></circle><circle r="4.113231870339635" cx="777.2054126259613" cy="385.4271187031243" opacity="0.48260201425348725"></circle><circle r="4.552239432251263" cx="14.895459796121562" cy="583.5746737109463" opacity="0.6061074169062187"></circle><circle r="7.174279274537875" cx="398.1868699837943" cy="567.3896026518931" opacity="0.3467597281213375"></circle><circle r="5.7113567826042475" cx="409.7239839639444" cy="595.7428629349465" opacity="0.2900923861099266"></circle><circle r="3.897069793250826" cx="365.5020943907619" cy="696.5357747130738" opacity="0.15231121625972743"></circle><circle r="6.881142997702477" cx="454.6198200703155" cy="147.75174048520518" opacity="0.7140065840549127"></circle><circle r="5.64846664254388" cx="533.2605819689624" cy="703.3319783733685" opacity="0.9432488193429168"></circle><circle r="5.865128140958007" cx="598.7030972666078" cy="136.79961840358948" opacity="0.8543982009258392"></circle><circle r="5.237208906406174" cx="324.220913444531" cy="462.60260915744914" opacity="0.4179297377125136"></circle><circle r="5.586370130760644" cx="428.6498958028267" cy="567.2261433754256" opacity="0.732309883087363"></circle><circle r="4.6815300941234685" cx="479.8295552530422" cy="530.4215783773658" opacity="0.5538921409428816"></circle><circle r="6.1753237794524285" cx="768.6403372338052" cy="154.9406822841538" opacity="0.8261233591819263"></circle><circle r="2.8043032743051417" cx="688.1742553035702" cy="394.1161007593432" opacity="0.449641196601705"></circle><circle r="5.481593781703154" cx="283.9165401483947" cy="455.3899261663802" opacity="0.5788185386264625"></circle><circle r="5.592131754424272" cx="479.69027185573225" cy="32.299036802831594" opacity="0.46001428646961096"></circle><circle r="5.239342665500247" cx="181.28708722299888" cy="94.46965631431183" opacity="0.9330542195004196"></circle><circle r="8.592823185893703" cx="391.09858485367687" cy="20.266879346018342" opacity="0.61329942836219"></circle><circle r="3.9793396141975217" cx="503.76911853352436" cy="745.0601339877823" opacity="0.4720032606296072"></circle><circle r="5.110004407021497" cx="148.66303336931736" cy="653.9720540025825" opacity="0.3960439476972303"></circle><circle r="8.69074230920256" cx="423.8091972078934" cy="269.4850167890324" opacity="0.6921014358979786"></circle><circle r="3.836442448008365" cx="785.8059492410877" cy="180.2276096519964" opacity="0.16772196361546618"></circle><circle r="8.107558174335587" cx="50.99108032865951" cy="175.51079565556276" opacity="0.754846053834563"></circle><circle r="4.428099119979135" cx="162.65726463610724" cy="187.31519285867293" opacity="0.6424397326120426"></circle><circle r="6.421641749240106" cx="190.33388675995823" cy="318.7768198127716" opacity="0.18077610426258442"></circle><circle r="3.872285549428947" cx="346.5831924933796" cy="639.2277254727848" opacity="0.8072458181905119"></circle><circle r="6.125436080717695" cx="577.8510185296021" cy="282.4372133084441" opacity="0.5189233013273596"></circle><circle r="4.868772295046862" cx="468.1797815490322" cy="473.6321508976446" opacity="0.1110106153841102"></circle><circle r="7.673732790633794" cx="131.38529834071915" cy="404.33507653032007" opacity="0.9801953196833495"></circle><circle r="5.398210707957629" cx="693.542064564825" cy="315.5674933358281" opacity="0.3373508538609844"></circle><circle r="6.900699644502601" cx="737.7592248496434" cy="736.6216774789257" opacity="0.8426331865113337"></circle><circle r="5.42424195204798" cx="778.628350399524" cy="538.6796456054738" opacity="0.7010990913828051"></circle><circle r="3.278211145779364" cx="465.78870582637023" cy="627.9994030595733" opacity="0.3048711278795068"></circle><circle r="5.689352623513114" cx="247.03312374841835" cy="411.42006061648334" opacity="0.7263761074997019"></circle><circle r="5.87728522235066" cx="631.6343478053091" cy="770.3975598261225" opacity="0.8536020538125291"></circle><circle r="6.332174917633971" cx="485.0117441826299" cy="86.13099154950106" opacity="0.15940097801692993"></circle><circle r="5.868885501421883" cx="583.6934357192121" cy="374.6488593317482" opacity="0.5409711556239818"></circle><circle r="8.356341065186545" cx="737.7668031915287" cy="632.516552682832" opacity="0.26403570157565087"></circle><circle r="5.468488390324043" cx="289.3347360750195" cy="593.7215852730777" opacity="0.5756570426769387"></circle><circle r="4.1289638456061475" cx="128.30352662800757" cy="240.99471736836537" opacity="0.7606283380100499"></circle><circle r="6.196225906276251" cx="649.9986185151471" cy="261.0031822432093" opacity="0.29274531555004446"></circle><circle r="5.947693532102784" cx="521.355254603631" cy="618.7711331351663" opacity="0.2367604898296804"></circle><circle r="6.857164412092887" cx="750.631218657138" cy="335.23455730297223" opacity="0.1252885903273805"></circle><circle r="6.630660595902704" cx="29.10705494757774" cy="135.6549235779609" opacity="0.7754072429090395"></circle><circle r="5.619712233676222" cx="67.4904819562697" cy="320.038320799554" opacity="0.9403816946037292"></circle><circle r="6.903771407663884" cx="509.0007971861844" cy="265.8475537294902" opacity="0.19880049619105183"></circle><circle r="7.945523714507492" cx="223.77708122622644" cy="633.5544938381514" opacity="0.5099498221237924"></circle><circle r="7.423614027063031" cx="16.74618995495986" cy="239.2442489538644" opacity="0.7271402505763191"></circle><circle r="3.8022820916683036" cx="12.474248253985854" cy="368.2953947145915" opacity="0.45635061499372076"></circle><circle r="3.9129774305361824" cx="667.8247886037677" cy="201.242725069936" opacity="0.46275150168539836"></circle><circle r="3.7265540628256897" cx="414.66200859441994" cy="741.9407696383565" opacity="0.3566883334008927"></circle><circle r="5.697221400145365" cx="364.1515140505975" cy="454.19813351368794" opacity="0.9719239305855851"></circle><circle r="2.2499793769341063" cx="531.3914912260748" cy="794.4611092666131" opacity="0.5413509129253183"></circle><circle r="8.660651029944642" cx="346.7187512347808" cy="158.16707626118176" opacity="0.4967458842016411"></circle><circle r="6.710761509200985" cx="172.9945019894875" cy="631.58429656439" opacity="0.38977900101868357"></circle><circle r="6.019844569185237" cx="685.4627469076676" cy="456.4277793188194" opacity="0.2659245575111822"></circle><circle r="5.038096335001589" cx="564.1441942146654" cy="430.27842597969845" opacity="0.4975189925107091"></circle><circle r="4.839104470824567" cx="771.2062168061462" cy="279.2127364058038" opacity="0.5274367693304358"></circle><circle r="9.295644746725824" cx="775.789814527782" cy="663.0816402505985" opacity="0.24478109851076826"></circle><circle r="4.7864044264612025" cx="471.1935442038222" cy="693.3257874452315" opacity="0.1441421118983771"></circle><circle r="3.752457866209147" cx="790.2056125389819" cy="139.3110901035849" opacity="0.30634972871267674"></circle><circle r="8.158434986783286" cx="712.7866745018534" cy="418.65136949212166" opacity="0.46338102791852365"></circle><circle r="5.624720992222857" cx="195.55360014433447" cy="247.6249582360342" opacity="0.9610250768308208"></circle><circle r="5.847833100030471" cx="432.2682234990509" cy="784.9776364690898" opacity="0.4975563469395524"></circle><circle r="10.087373210734313" cx="271.7751489779428" cy="705.356638442606" opacity="0.8523526595984428"></circle><circle r="4.332589977298872" cx="520.3479250583164" cy="484.6888224454627" opacity="0.23447550600115574"></circle><circle r="3.9732554055848848" cx="714.6216807666508" cy="176.72941775052746" opacity="0.1631067442498369"></circle><circle r="4.237499785476854" cx="159.46780951325314" cy="597.167720319551" opacity="0.33057482476134387"></circle><circle r="6.032828051463335" cx="786.1042155190108" cy="569.8034661667742" opacity="0.8486042973360862"></circle><circle r="5.660749210801805" cx="144.38906842805008" cy="506.0873478633263" opacity="0.34680817951773424"></circle><circle r="8.293674334985623" cx="368.83146727718713" cy="113.4323800645908" opacity="0.5563086029608869"></circle><circle r="3.8556741396371357" cx="671.2200079218311" cy="229.9483279433242" opacity="0.3863553441999179"></circle><circle r="5.446113271139926" cx="477.3495874880587" cy="215.38444020597746" opacity="0.21654711529433762"></circle><circle r="6.801897628022706" cx="65.28896223705135" cy="385.90335589455015" opacity="0.29119757248384337"></circle><circle r="6.475201826650885" cx="785.085334132787" cy="628.494578481334" opacity="0.5698726251581062"></circle><circle r="4.003394057915738" cx="295.83791684597406" cy="621.7829789498898" opacity="0.2469893503873286"></circle><circle r="6.125217979635151" cx="356.0039143942637" cy="534.8007963067456" opacity="0.49243462857654063"></circle><circle r="3.5665342909334847" cx="248.62589536812575" cy="531.8870889466143" opacity="0.6710623789950462"></circle><circle r="5.070854567932734" cx="230.1824368503792" cy="249.96269010366078" opacity="0.5285444288899467"></circle><circle r="4.36099600767931" cx="64.92221209384485" cy="206.1248748916259" opacity="0.7165106133141352"></circle><circle r="7.26893526977306" cx="421.0236639232065" cy="155.41463937787458" opacity="0.4491272774727063"></circle><circle r="7.294309715108696" cx="309.6089961766328" cy="686.6211242227608" opacity="0.49576087468651975"></circle><circle r="5.079589063871258" cx="664.0050643865206" cy="372.60087384793127" opacity="0.3070509726666355"></circle><circle r="5.06657067468495" cx="133.41836960483627" cy="200.60965594987178" opacity="0.8524034496307482"></circle><circle r="6.870961162031829" cx="747.3604928079486" cy="177.0322393028311" opacity="0.7837215813271939"></circle><circle r="6.593444364579643" cx="231.9132115110824" cy="70.80271888172582" opacity="0.7175432972583882"></circle><circle r="8.082958926363952" cx="245.0729097625421" cy="22.025286899956747" opacity="0.14836970173678815"></circle><circle r="4.93515268216168" cx="651.4254346601576" cy="185.07800387174234" opacity="0.34275787670022"></circle><circle r="3.1719905829658632" cx="11.001042275595301" cy="125.31596841188647" opacity="0.8510428597617566"></circle><circle r="4.29944928608554" cx="476.9699936209457" cy="435.96018009126533" opacity="0.7302432760019381"></circle><circle r="4.339949574484768" cx="392.17237801640044" cy="435.4335373621322" opacity="0.5992299636966751"></circle><circle r="4.33494990852261" cx="701.5758984065619" cy="639.9380834750241" opacity="0.18089367133721185"></circle><circle r="5.026070890049203" cx="786.5948524639732" cy="342.59073008100034" opacity="0.5502761085083464"></circle><circle r="6.0657728823172405" cx="57.00420976641343" cy="128.94896095653831" opacity="0.5464564763208813"></circle><circle r="3.9702575957382122" cx="236.95561288432597" cy="436.62527029862883" opacity="0.8349309211031065"></circle><circle r="5.130231597821666" cx="429.0323670846205" cy="758.0720716575572" opacity="0.9429859183713225"></circle><circle r="4.838267119424579" cx="588.0071750301095" cy="200.31069180328464" opacity="0.26358773984330863"></circle><circle r="8.155986517204248" cx="396.20623377356065" cy="62.787295296302446" opacity="0.809527915633917"></circle><circle r="5.601468411720138" cx="82.70282939913486" cy="48.24164331394478" opacity="0.889709058210731"></circle><circle r="4.972179337094074" cx="393.66716816785845" cy="749.4696518463031" opacity="0.7282904417708931"></circle><circle r="7.780533914197744" cx="518.636499113299" cy="39.34019304902693" opacity="0.574560543422198"></circle><circle r="5.697585958258429" cx="600.067509948108" cy="344.57588566508963" opacity="0.4866828724857648"></circle><circle r="6.024736324156231" cx="553.1932628290866" cy="487.4023586843081" opacity="0.7341154539465635"></circle><circle r="4.1284360597304115" cx="555.0150442097286" cy="135.03403906616327" opacity="0.5315756493556335"></circle><circle r="7.705689515435364" cx="194.58161283458833" cy="285.4187852042663" opacity="0.9807431530694697"></circle><circle r="5.31338838627437" cx="303.5592188020007" cy="375.4332224448879" opacity="0.7940123529644756"></circle><circle r="6.136336966724251" cx="535.9833921713666" cy="250.3172841551738" opacity="0.7228448111007317"></circle><circle r="6.507564320304734" cx="334.62126753539593" cy="705.0135069196215" opacity="0.33614411164270463"></circle><circle r="6.0578304189470025" cx="576.8441968831206" cy="636.413282382422" opacity="0.19106606220700548"></circle><circle r="5.616192393798608" cx="339.86358846947115" cy="779.2317761108502" opacity="0.3151131694664836"></circle><circle r="5.400643445698745" cx="12.24129107356966" cy="512.5932295290141" opacity="0.14439594935619404"></circle><circle r="6.554021150409756" cx="27.448925280052514" cy="396.0819433550965" opacity="0.7700621957556445"></circle><circle r="5.332371889468378" cx="787.9021229662795" cy="488.1891839626812" opacity="0.810141062053247"></circle><circle r="5.37834520497092" cx="625.5515540765925" cy="53.22140100167204" opacity="0.8440800112299247"></circle><circle r="3.2969160200208876" cx="248.18409633230343" cy="654.1413455643522" opacity="0.190785312481547"></circle><circle r="6.718607849611249" cx="183.01228850957173" cy="215.88409352727686" opacity="0.33162034527826567"></circle><circle r="5.723013522278661" cx="662.3166655167828" cy="635.5767785555579" opacity="0.723614177077718"></circle><circle r="3.2533441280438895" cx="525.1625758649831" cy="782.216760541118" opacity="0.9796682080567037"></circle><circle r="7.183406710843431" cx="235.1610323768587" cy="721.1729618170843" opacity="0.45770260614193337"></circle><circle r="4.221191233632631" cx="281.77293405494225" cy="353.70668943843134" opacity="0.704804310584438"></circle><circle r="4.66034223321393" cx="553.1624482530323" cy="12.671815312178127" opacity="0.3455074581331281"></circle><circle r="9.98162560001973" cx="406.59178312190994" cy="110.69036232732637" opacity="0.6993814005819438"></circle><circle r="5.913150246891826" cx="724.6876147516391" cy="70.29051858004603" opacity="0.38902594914000577"></circle><circle r="5.991767579451564" cx="166.57534187617958" cy="376.91879495814965" opacity="0.3100410307202148"></circle><circle r="6.781465574329162" cx="208.16671049424087" cy="495.75869467272594" opacity="0.9226073494797341"></circle><circle r="7.368321911220971" cx="167.30019269484004" cy="338.8504302419373" opacity="0.3994111564555006"></circle><circle r="6.4143935478016445" cx="502.9670565505938" cy="717.5652107087698" opacity="0.25256254175244897"></circle><circle r="5.070071619843069" cx="548.5520201248903" cy="544.583351594055" opacity="0.639705460879674"></circle><circle r="5.564302746000668" cx="389.5212834394512" cy="379.689349579979" opacity="0.8677426015999447"></circle><circle r="6.2149636127468995" cx="61.71567325164388" cy="680.3830145502535" opacity="0.16312377438479625"></circle><circle r="2.8229730586769635" cx="394.06891927859016" cy="728.4423123069001" opacity="0.23326777832762757"></circle><circle r="5.223954916634532" cx="36.91401537895677" cy="79.87644655300097" opacity="0.21609961661310403"></circle><circle r="7.202692725997007" cx="428.7218499829246" cy="614.5686176146612" opacity="0.7226388330078725"></circle><circle r="6.597432704067447" cx="190.42148732011833" cy="545.3033460631463" opacity="0.6862966752616746"></circle><circle r="5.715483744625821" cx="748.9779979169087" cy="236.9564554979021" opacity="0.48279195744166625"></circle><circle r="7.047993039647689" cx="571.4699676677906" cy="570.3037136464872" opacity="0.10425281903726014"></circle><circle r="5.024969714794461" cx="201.07985997127287" cy="350.16956643021376" opacity="0.37868147813049"></circle><circle r="4.8946799157919765" cx="516.586112544536" cy="363.2824236252514" opacity="0.8198947164628297"></circle><circle r="6.789218349119553" cx="42.58993182445353" cy="556.9558648783784" opacity="0.40463231723365933"></circle><circle r="4.178615584613816" cx="339.8419007370959" cy="376.47414269622567" opacity="0.15414903861963095"></circle><circle r="7.9679225363076025" cx="744.5655051211824" cy="694.4384855971264" opacity="0.17973700236618667"></circle><circle r="4.984907010896714" cx="413.6620060998409" cy="529.6540575725166" opacity="0.6363932752744201"></circle><circle r="6.221884379324042" cx="112.67604201980761" cy="668.8198856530179" opacity="0.6497028284527245"></circle><circle r="3.3450617985359434" cx="753.3366785901187" cy="9.384574658936451" opacity="0.6585777441940888"></circle><circle r="4.884826140087082" cx="237.73052744687857" cy="505.9881210586818" opacity="0.7752083735414738"></circle><circle r="5.944665319017892" cx="683.0454827138963" cy="421.49625106386276" opacity="0.6979953904026364"></circle></g></svg>